<svg width="26" height="26" viewBox="0 0 26 26" fill="none" xmlns="http://www.w3.org/2000/svg">
<path d="M3.08333 25.75C2.30417 25.75 1.63692 25.4728 1.08158 24.9184C0.527194 24.3631 0.25 23.6958 0.25 22.9167V5.20833C0.25 4.85417 0.309028 4.53542 0.427083 4.25208C0.545139 3.96875 0.698611 3.69722 0.8875 3.4375L2.87083 1.02917C3.05972 0.769444 3.29583 0.574417 3.57917 0.444083C3.8625 0.314695 4.16944 0.25 4.5 0.25H21.5C21.8306 0.25 22.1375 0.314695 22.4208 0.444083C22.7042 0.574417 22.9403 0.769444 23.1292 1.02917L25.1125 3.4375C25.3014 3.69722 25.4549 3.96875 25.5729 4.25208C25.691 4.53542 25.75 4.85417 25.75 5.20833V22.9167C25.75 23.6958 25.4728 24.3631 24.9184 24.9184C24.3631 25.4728 23.6958 25.75 22.9167 25.75H3.08333ZM3.65 4.5H22.35L21.1458 3.08333H4.85417L3.65 4.5ZM13 21.5L18.6667 15.8333L16.6833 13.85L14.4167 16.1167V10.1667H11.5833V16.1167L9.31667 13.85L7.33333 15.8333L13 21.5Z" fill="white"/>
</svg>
