<svg width="24" height="30" viewBox="0 0 24 30" fill="none" xmlns="http://www.w3.org/2000/svg">
<path d="M3.49996 0.833344C2.74851 0.833344 2.02784 1.13185 1.49649 1.66321C0.965137 2.19456 0.666626 2.91523 0.666626 3.66668V26.3333C0.666626 27.0848 0.965137 27.8055 1.49649 28.3368C2.02784 28.8682 2.74851 29.1667 3.49996 29.1667H19.0833C20.2105 29.1667 21.2915 28.7189 22.0885 27.9219C22.8855 27.1249 23.3333 26.0438 23.3333 24.9167V5.08334C23.3333 3.95617 22.8855 2.87517 22.0885 2.07814C21.2915 1.28111 20.2105 0.833344 19.0833 0.833344H17.6666V14.7068C17.6666 14.8469 17.625 14.9839 17.5471 15.1004C17.4691 15.2169 17.3584 15.3077 17.2289 15.3612C17.0993 15.4148 16.9568 15.4287 16.8194 15.4012C16.682 15.3737 16.5558 15.3061 16.4568 15.2068L13.9181 12.6682C13.8523 12.6022 13.7742 12.5499 13.6881 12.5142C13.6021 12.4785 13.5098 12.4601 13.4166 12.4601C13.3235 12.4601 13.2312 12.4785 13.1451 12.5142C13.0591 12.5499 12.9809 12.6022 12.9151 12.6682L10.3765 15.2068C10.2775 15.3061 10.1513 15.3737 10.0138 15.4012C9.8764 15.4287 9.7339 15.4148 9.60437 15.3612C9.47484 15.3077 9.36411 15.2169 9.28619 15.1004C9.20827 14.9839 9.16666 14.8469 9.16663 14.7068V0.833344H3.49996Z" fill="white"/>
</svg>
