<svg width="26" height="30" viewBox="0 0 26 30" fill="none" xmlns="http://www.w3.org/2000/svg">
<path fill-rule="evenodd" clip-rule="evenodd" d="M16.23 0.833328C16.8247 0.833482 17.4042 1.02073 17.8865 1.36856C18.3688 1.71638 18.7295 2.20714 18.9174 2.77133L19.6867 5.08333H24.3333C24.7091 5.08333 25.0694 5.23258 25.3351 5.49826C25.6007 5.76394 25.75 6.12427 25.75 6.5C25.75 6.87572 25.6007 7.23605 25.3351 7.50173C25.0694 7.76741 24.7091 7.91666 24.3333 7.91666L24.3291 8.01725L23.1008 25.2198C23.0242 26.2917 22.5443 27.2947 21.7579 28.027C20.9714 28.7593 19.9368 29.1665 18.8622 29.1667H7.13783C6.06323 29.1665 5.02857 28.7593 4.24212 28.027C3.45567 27.2947 2.97582 26.2917 2.89917 25.2198L1.67092 8.01583C1.66835 7.98283 1.66694 7.94976 1.66667 7.91666C1.29094 7.91666 0.930609 7.76741 0.664932 7.50173C0.399255 7.23605 0.25 6.87572 0.25 6.5C0.25 6.12427 0.399255 5.76394 0.664932 5.49826C0.930609 5.23258 1.29094 5.08333 1.66667 5.08333H6.31333L7.08258 2.77133C7.27057 2.20691 7.63145 1.71599 8.11406 1.36814C8.59666 1.0203 9.17652 0.833185 9.77142 0.833328H16.2286H16.23ZM8.75 12.1667C8.40301 12.1667 8.0681 12.2941 7.80881 12.5247C7.54951 12.7553 7.38385 13.073 7.34325 13.4176L7.33333 13.5833V22.0833C7.33373 22.4444 7.47199 22.7917 7.71987 23.0543C7.96774 23.3168 8.30652 23.4748 8.66698 23.496C9.02743 23.5171 9.38237 23.3999 9.65926 23.1681C9.93615 22.9364 10.1141 22.6076 10.1567 22.2491L10.1667 22.0833V13.5833C10.1667 13.2076 10.0174 12.8473 9.75173 12.5816C9.48606 12.3159 9.12572 12.1667 8.75 12.1667ZM17.25 12.1667C16.8743 12.1667 16.5139 12.3159 16.2483 12.5816C15.9826 12.8473 15.8333 13.2076 15.8333 13.5833V22.0833C15.8333 22.4591 15.9826 22.8194 16.2483 23.0851C16.5139 23.3507 16.8743 23.5 17.25 23.5C17.6257 23.5 17.9861 23.3507 18.2517 23.0851C18.5174 22.8194 18.6667 22.4591 18.6667 22.0833V13.5833C18.6667 13.2076 18.5174 12.8473 18.2517 12.5816C17.9861 12.3159 17.6257 12.1667 17.25 12.1667ZM16.23 3.66666H9.77L9.29825 5.08333H16.7017L16.2286 3.66666H16.23Z" fill="white"/>
</svg>
