<svg width="19" height="21" viewBox="0 0 19 21" fill="none" xmlns="http://www.w3.org/2000/svg">
<path d="M14.972 10.6576L9.17599 16.4536C8.83819 16.7912 8.59845 17.2143 8.48239 17.6776L8.03239 19.4752C7.98801 19.654 7.99063 19.8412 8.03999 20.0187C8.08935 20.1961 8.18378 20.3578 8.31409 20.488C8.44441 20.6182 8.60618 20.7125 8.7837 20.7617C8.96122 20.8109 9.14845 20.8133 9.32719 20.7688L11.1248 20.32C11.5882 20.2041 12.0113 19.9643 12.3488 19.6264L18.1448 13.8304C18.5602 13.4084 18.7919 12.8393 18.7895 12.2472C18.7871 11.655 18.5507 11.0879 18.1319 10.6692C17.7132 10.2506 17.1459 10.0145 16.5538 10.0123C15.9616 10.0101 15.3926 10.2421 14.9708 10.6576H14.972ZM4.39999 0.999994C4.39999 0.840864 4.33677 0.688252 4.22425 0.57573C4.11173 0.463208 3.95912 0.399994 3.79999 0.399994C3.64086 0.399994 3.48825 0.463208 3.37572 0.57573C3.2632 0.688252 3.19999 0.840864 3.19999 0.999994V1.59999H2.59999C2.1226 1.59999 1.66476 1.78964 1.3272 2.1272C0.98963 2.46477 0.799988 2.9226 0.799988 3.39999V17.8C0.799988 18.2774 0.98963 18.7352 1.3272 19.0728C1.66476 19.4104 2.1226 19.6 2.59999 19.6H6.80359C6.81199 19.4632 6.83359 19.324 6.86839 19.1836L7.31839 17.386C7.48637 16.7115 7.83483 16.0955 8.32639 15.604L14.1224 9.80799C14.4316 9.49807 14.7974 9.25038 15.2 9.07839V3.39999C15.2 2.9226 15.0103 2.46477 14.6728 2.1272C14.3352 1.78964 13.8774 1.59999 13.4 1.59999H12.8V0.999994C12.8 0.840864 12.7368 0.688252 12.6243 0.57573C12.5117 0.463208 12.3591 0.399994 12.2 0.399994C12.0409 0.399994 11.8882 0.463208 11.7757 0.57573C11.6632 0.688252 11.6 0.840864 11.6 0.999994V1.59999H8.59999V0.999994C8.59999 0.840864 8.53677 0.688252 8.42425 0.57573C8.31173 0.463208 8.15912 0.399994 7.99999 0.399994C7.84086 0.399994 7.68825 0.463208 7.57572 0.57573C7.4632 0.688252 7.39999 0.840864 7.39999 0.999994V1.59999H4.39999V0.999994ZM4.99999 6.39999H11C11.1591 6.39999 11.3117 6.46321 11.4243 6.57573C11.5368 6.68825 11.6 6.84086 11.6 6.99999C11.6 7.15912 11.5368 7.31174 11.4243 7.42426C11.3117 7.53678 11.1591 7.59999 11 7.59999H4.99999C4.84086 7.59999 4.68825 7.53678 4.57572 7.42426C4.4632 7.31174 4.39999 7.15912 4.39999 6.99999C4.39999 6.84086 4.4632 6.68825 4.57572 6.57573C4.68825 6.46321 4.84086 6.39999 4.99999 6.39999ZM11.6 10.6C11.6 10.7591 11.5368 10.9117 11.4243 11.0243C11.3117 11.1368 11.1591 11.2 11 11.2H4.99999C4.84086 11.2 4.68825 11.1368 4.57572 11.0243C4.4632 10.9117 4.39999 10.7591 4.39999 10.6C4.39999 10.4409 4.4632 10.2883 4.57572 10.1757C4.68825 10.0632 4.84086 9.99999 4.99999 9.99999H11C11.1591 9.99999 11.3117 10.0632 11.4243 10.1757C11.5368 10.2883 11.6 10.4409 11.6 10.6ZM4.99999 13.6H7.39999C7.55912 13.6 7.71173 13.6632 7.82425 13.7757C7.93677 13.8883 7.99999 14.0409 7.99999 14.2C7.99999 14.3591 7.93677 14.5117 7.82425 14.6243C7.71173 14.7368 7.55912 14.8 7.39999 14.8H4.99999C4.84086 14.8 4.68825 14.7368 4.57572 14.6243C4.4632 14.5117 4.39999 14.3591 4.39999 14.2C4.39999 14.0409 4.4632 13.8883 4.57572 13.7757C4.68825 13.6632 4.84086 13.6 4.99999 13.6Z" fill="white"/>
</svg>
