<svg width="30" height="27" viewBox="0 0 30 27" fill="none" xmlns="http://www.w3.org/2000/svg">
<path d="M15 26.75L12.9459 24.9083C10.5612 22.7597 8.58962 20.9063 7.03129 19.3479C5.47296 17.7896 4.23337 16.3904 3.31254 15.1503C2.39171 13.9112 1.74854 12.7722 1.38304 11.7333C1.0166 10.6945 0.833374 9.63196 0.833374 8.54585C0.833374 6.3264 1.57712 4.47293 3.06462 2.98543C4.55212 1.49793 6.4056 0.754181 8.62504 0.754181C9.85282 0.754181 11.0216 1.0139 12.1313 1.53335C13.241 2.05279 14.1973 2.78474 15 3.72918C15.8028 2.78474 16.7591 2.05279 17.8688 1.53335C18.9785 1.0139 20.1473 0.754181 21.375 0.754181C23.5945 0.754181 25.448 1.49793 26.9355 2.98543C28.423 4.47293 29.1667 6.3264 29.1667 8.54585C29.1667 9.63196 28.984 10.6945 28.6185 11.7333C28.252 12.7722 27.6084 13.9112 26.6875 15.1503C25.7667 16.3904 24.5271 17.7896 22.9688 19.3479C21.4105 20.9063 19.4389 22.7597 17.0542 24.9083L15 26.75Z" fill="white"/>
</svg>
