<svg width="20" height="20" viewBox="0 0 20 20" fill="none" xmlns="http://www.w3.org/2000/svg">
<path fill-rule="evenodd" clip-rule="evenodd" d="M15.319 13.433C16.566 11.8254 17.1537 9.80305 16.9625 7.77748C16.7714 5.7519 15.8157 3.87524 14.29 2.52927C12.7642 1.1833 10.783 0.469132 8.74944 0.53206C6.71584 0.594988 4.7826 1.43028 3.34301 2.86801C1.90217 4.30674 1.06414 6.24073 0.999707 8.27588C0.935275 10.311 1.64929 12.2942 2.99624 13.8211C4.34319 15.3481 6.22171 16.304 8.24898 16.4941C10.2763 16.6842 12.2997 16.094 13.907 14.844L13.95 14.889L18.192 19.132C18.2849 19.2249 18.3952 19.2986 18.5166 19.3489C18.638 19.3992 18.7681 19.4251 18.8995 19.4251C19.0309 19.4251 19.161 19.3992 19.2824 19.3489C19.4038 19.2986 19.5141 19.2249 19.607 19.132C19.6999 19.0391 19.7736 18.9288 19.8239 18.8074C19.8742 18.686 19.9001 18.5559 19.9001 18.4245C19.9001 18.2931 19.8742 18.163 19.8239 18.0416C19.7736 17.9202 19.6999 17.8099 19.607 17.717L15.364 13.475C15.3494 13.4606 15.3344 13.4466 15.319 13.433ZM13.243 4.28301C13.8076 4.83849 14.2566 5.50026 14.5642 6.23015C14.8718 6.96004 15.0318 7.7436 15.035 8.53563C15.0382 9.32767 14.8846 10.1125 14.583 10.8449C14.2814 11.5772 13.8378 12.2426 13.2777 12.8027C12.7176 13.3628 12.0522 13.8064 11.3199 14.108C10.5875 14.4096 9.80266 14.5632 9.01063 14.56C8.21859 14.5568 7.43503 14.3968 6.70514 14.0892C5.97526 13.7816 5.31349 13.3326 4.75801 12.768C3.64793 11.6397 3.02866 10.1185 3.03511 8.53563C3.04156 6.95281 3.67319 5.43666 4.79242 4.31742C5.91165 3.19819 7.42781 2.56656 9.01063 2.56011C10.5935 2.55367 12.1147 3.17293 13.243 4.28301Z" fill="white"/>
</svg>
