<svg width="32" height="24" viewBox="0 0 32 24" fill="none" xmlns="http://www.w3.org/2000/svg">
<path d="M10 5.5C10 5.10218 10.158 4.72064 10.4393 4.43934C10.7206 4.15804 11.1022 4 11.5 4H28.5C28.8978 4 29.2794 4.15804 29.5607 4.43934C29.842 4.72064 30 5.10218 30 5.5C30 5.89782 29.842 6.27936 29.5607 6.56066C29.2794 6.84196 28.8978 7 28.5 7H11.5C11.1022 7 10.7206 6.84196 10.4393 6.56066C10.158 6.27936 10 5.89782 10 5.5V5.5ZM14 11.5C14 11.1022 14.158 10.7206 14.4393 10.4393C14.7206 10.158 15.1022 10 15.5 10H24.5C24.8978 10 25.2794 10.158 25.5607 10.4393C25.842 10.7206 26 11.1022 26 11.5C26 11.8978 25.842 12.2794 25.5607 12.5607C25.2794 12.842 24.8978 13 24.5 13H15.5C15.1022 13 14.7206 12.842 14.4393 12.5607C14.158 12.2794 14 11.8978 14 11.5ZM18.5 16C18.1022 16 17.7206 16.158 17.4393 16.4393C17.158 16.7206 17 17.1022 17 17.5C17 17.8978 17.158 18.2794 17.4393 18.5607C17.7206 18.842 18.1022 19 18.5 19H21.5C21.8978 19 22.2794 18.842 22.5607 18.5607C22.842 18.2794 23 17.8978 23 17.5C23 17.1022 22.842 16.7206 22.5607 16.4393C22.2794 16.158 21.8978 16 21.5 16H18.5Z" fill="white"/>
<path fill-rule="evenodd" clip-rule="evenodd" d="M8.00001 5C8.13261 5 8.25979 5.05268 8.35356 5.14645C8.44733 5.24021 8.50001 5.36739 8.50001 5.5V17.293L11.646 14.146C11.7399 14.0521 11.8672 13.9994 12 13.9994C12.1328 13.9994 12.2601 14.0521 12.354 14.146C12.4479 14.2399 12.5006 14.3672 12.5006 14.5C12.5006 14.6328 12.4479 14.7601 12.354 14.854L8.35401 18.854C8.30756 18.9006 8.25238 18.9375 8.19164 18.9627C8.13089 18.9879 8.06577 19.0009 8.00001 19.0009C7.93424 19.0009 7.86912 18.9879 7.80837 18.9627C7.74763 18.9375 7.69245 18.9006 7.64601 18.854L3.64601 14.854C3.55212 14.7601 3.49937 14.6328 3.49937 14.5C3.49937 14.3672 3.55212 14.2399 3.64601 14.146C3.73989 14.0521 3.86723 13.9994 4.00001 13.9994C4.13278 13.9994 4.26012 14.0521 4.35401 14.146L7.50001 17.293V5.5C7.50001 5.36739 7.55268 5.24021 7.64645 5.14645C7.74022 5.05268 7.8674 5 8.00001 5Z" fill="white"/>
</svg>
