<svg width="28" height="30" viewBox="0 0 28 30" fill="none" xmlns="http://www.w3.org/2000/svg">
<path d="M16.5783 29.1667H11.4217C11.0986 29.1667 10.7852 29.0563 10.5334 28.8538C10.2817 28.6513 10.1067 28.3688 10.0376 28.0532L9.461 25.3842C8.69183 25.0471 7.9625 24.6257 7.28642 24.1276L4.684 24.9563C4.37596 25.0546 4.04359 25.0445 3.74209 24.9277C3.44058 24.811 3.18807 24.5946 3.0265 24.3146L0.442499 19.8507C0.282621 19.5704 0.222607 19.2441 0.272276 18.9252C0.321944 18.6064 0.478353 18.3138 0.715916 18.0954L2.73467 16.2538C2.64286 15.4195 2.64286 14.5777 2.73467 13.7434L0.715916 11.906C0.478017 11.6875 0.321395 11.3947 0.271718 11.0755C0.222042 10.7564 0.282259 10.4298 0.442499 10.1493L3.02083 5.68259C3.1824 5.40253 3.43491 5.18617 3.73642 5.06944C4.03793 4.9527 4.3703 4.94261 4.67833 5.04084L7.28075 5.86959C7.62642 5.61459 7.98625 5.37659 8.35742 5.16125C8.71583 4.96009 9.08417 4.77734 9.461 4.61442L10.039 1.94825C10.1078 1.63262 10.2824 1.34998 10.5339 1.1472C10.7854 0.944416 11.0986 0.833676 11.4217 0.833336H16.5783C16.9014 0.833676 17.2146 0.944416 17.4661 1.1472C17.7176 1.34998 17.8922 1.63262 17.961 1.94825L18.5447 4.61584C19.3129 4.9548 20.042 5.37613 20.7192 5.87242L23.3231 5.04367C23.6309 4.9458 23.963 4.95608 24.2642 5.0728C24.5654 5.18952 24.8177 5.40567 24.9792 5.68542L27.5575 10.1522C27.8862 10.7288 27.7728 11.4583 27.2841 11.9074L25.2653 13.7491C25.3571 14.5833 25.3571 15.4252 25.2653 16.2594L27.2841 18.1011C27.7728 18.5516 27.8862 19.2798 27.5575 19.8563L24.9792 24.3231C24.8176 24.6031 24.5651 24.8195 24.2636 24.9362C23.9621 25.053 23.6297 25.0631 23.3217 24.9648L20.7192 24.1361C20.0437 24.6338 19.3148 25.0548 18.5461 25.3913L17.961 28.0532C17.8919 28.3685 17.7172 28.6509 17.4657 28.8534C17.2143 29.0559 16.9012 29.1664 16.5783 29.1667ZM13.9943 9.33334C12.4914 9.33334 11.0501 9.93036 9.98739 10.9931C8.92469 12.0558 8.32767 13.4971 8.32767 15C8.32767 16.5029 8.92469 17.9442 9.98739 19.0069C11.0501 20.0696 12.4914 20.6667 13.9943 20.6667C15.4972 20.6667 16.9386 20.0696 18.0013 19.0069C19.064 17.9442 19.661 16.5029 19.661 15C19.661 13.4971 19.064 12.0558 18.0013 10.9931C16.9386 9.93036 15.4972 9.33334 13.9943 9.33334Z" fill="white"/>
</svg>
