<svg width="24" height="24" viewBox="0 0 24 24" fill="none" xmlns="http://www.w3.org/2000/svg">
<path d="M12 13.1429C12.6312 13.1429 13.1428 12.6312 13.1428 12C13.1428 11.3688 12.6312 10.8571 12 10.8571C11.3688 10.8571 10.8571 11.3688 10.8571 12C10.8571 12.6312 11.3688 13.1429 12 13.1429Z" fill="black"/>
<path d="M6.28571 13.1429C6.91689 13.1429 7.42857 12.6312 7.42857 12C7.42857 11.3688 6.91689 10.8571 6.28571 10.8571C5.65453 10.8571 5.14285 11.3688 5.14285 12C5.14285 12.6312 5.65453 13.1429 6.28571 13.1429Z" fill="black"/>
<path d="M17.7143 13.1429C18.3455 13.1429 18.8571 12.6312 18.8571 12C18.8571 11.3688 18.3455 10.8571 17.7143 10.8571C17.0831 10.8571 16.5714 11.3688 16.5714 12C16.5714 12.6312 17.0831 13.1429 17.7143 13.1429Z" fill="black"/>
</svg>
